<svg width="25" height="25" viewBox="0 0 16 16" role="img" focusable="false" aria-hidden="true" xmlns="http://www.w3.org/2000/svg" class="sx-1fwcy2r sx-13jp3wb sx-13wgh6h sx-31pjnn sx-m5nenu sx-1fwcy2r sx-13jp3wb sx-12exqgt sx-1tad8l3" style="--x---icon-default-color:currentColor" fill="#62666d">
  <path d="M8.5 4C8.5 3.58579 8.3 3.25 8 3.25C7.7 3.25 7.5 3.58579 7.5 4V7.5H4C3.58579 7.5 3.25 7.7 3.25 8C3.25 8.3 3.58579 8.5 4 8.5H7.5V12C7.5 12.4142 7.7 12.75 8 12.75C8.3 12.75 8.5 12.4142 8.5 12V8.5H12C12.4142 8.5 12.75 8.3 12.75 8C12.75 7.7 12.4142 7.5 12 7.5H8.5V4Z"></path>
</svg>
